<svg xmlns="http://www.w3.org/2000/svg" version="1.1" xmlns:xlink="http://www.w3.org/1999/xlink" xmlns:svgjs="http://svgjs.dev/svgjs" width="1000" height="1000" viewBox="0 0 1000 1000"><rect width="1000" height="1000" fill="#ffffff"></rect><g transform="matrix(0.7,0,0,0.7,149.57576813542477,423.69055600643526)"><svg viewBox="0 0 396 86" data-background-color="#ffffff" preserveAspectRatio="xMidYMid meet" height="217" width="1000" xmlns="http://www.w3.org/2000/svg" xmlns:xlink="http://www.w3.org/1999/xlink"><defs></defs><g id="tight-bounds" transform="matrix(1,0,0,1,0.23999402624542654,0.2035035118273072)"><svg viewBox="0 0 395.52 85.59299297634539" height="85.59299297634539" width="395.52"><g><svg viewBox="0 0 484.44626502263634 104.83719093724532" height="85.59299297634539" width="395.52"><g transform="matrix(1,0,0,1,88.92626502263634,14.489076316218423)"><svg viewBox="0 0 395.52 75.85903830480848" height="75.85903830480848" width="395.52"><g><svg viewBox="0 0 395.52 75.85903830480848" height="75.85903830480848" width="395.52"><g><svg viewBox="0 0 395.52 75.85903830480848" height="75.85903830480848" width="395.52"><g transform="matrix(1,0,0,1,0,0)"><svg width="395.52" viewBox="2.5999999046325684 -34.79999923706055 184.0399932861328 35.29999923706055" height="75.85903830480848" data-palette-color="#61777f"><path d="M15.7-34.8Q21.35-34.8 24.58-32.3 27.8-29.8 27.8-25.2L27.8-25.2 27.8-24.6 22.9-24.6 22.9-25.35Q22.9-27.75 20.95-29.05 19-30.35 15.8-30.35L15.8-30.35Q12.25-30.35 10.28-29.18 8.3-28 8.3-25.8L8.3-25.8Q8.3-24.15 9.43-23.1 10.55-22.05 12.23-21.45 13.9-20.85 16.85-20.1L16.85-20.1Q20.65-19.1 23-18.15 25.35-17.2 27.03-15.3 28.7-13.4 28.7-10.25L28.7-10.25Q28.7-4.65 25.28-2.08 21.85 0.5 15.65 0.5L15.65 0.5Q9.45 0.5 6.03-2.13 2.6-4.75 2.6-9.75L2.6-9.75 2.65-10.75 7.55-10.75 7.5-9.7Q7.5-6.8 9.68-5.38 11.85-3.95 15.7-3.95L15.7-3.95Q19.45-3.95 21.63-5.33 23.8-6.7 23.8-9.1L23.8-9.1Q23.8-11 22.63-12.18 21.45-13.35 19.68-14 17.9-14.65 14.85-15.45L14.85-15.45Q11.1-16.45 8.85-17.35 6.6-18.25 5-20.13 3.4-22 3.4-25.05L3.4-25.05Q3.4-30 6.75-32.4 10.1-34.8 15.7-34.8L15.7-34.8ZM50.75-34.3Q53.65-34.3 56-33 58.35-31.7 59.67-29.43 61-27.15 61-24.3L61-24.3Q61-21.45 59.67-19.18 58.35-16.9 56-15.6 53.65-14.3 50.75-14.3L50.75-14.3 40.85-14.3 40.85 0 35.95 0 35.95-34.3 50.75-34.3ZM50.3-29.85L40.85-29.85 40.85-18.75 50.3-18.75Q52.65-18.75 54.37-20.38 56.1-22 56.1-24.3L56.1-24.3Q56.1-26.65 54.37-28.25 52.65-29.85 50.3-29.85L50.3-29.85ZM76.15-34.3L81.55-34.3 94.94 0 89.65 0 86.75-7.45 70.34-7.45 67.5 0 62.75 0 76.15-34.3ZM85.05-11.9L78.75-28.4 78.45-28.4 72.09-11.9 85.05-11.9ZM112.34-34.8Q116.34-34.8 119.34-33.15 122.34-31.5 123.97-28.43 125.59-25.35 125.59-21.15L125.59-21.15 120.69-21.15Q120.69-25.5 118.54-27.93 116.39-30.35 112.34-30.35L112.34-30.35Q107.84-30.35 105.49-27.58 103.14-24.8 103.14-19.4L103.14-19.4 103.14-14.9Q103.14-9.55 105.44-6.75 107.74-3.95 112.24-3.95L112.24-3.95Q116.44-3.95 118.67-6.35 120.89-8.75 120.89-13.05L120.89-13.05 125.59-13.05Q125.59-8.9 123.97-5.85 122.34-2.8 119.34-1.15 116.34 0.5 112.34 0.5L112.34 0.5Q105.69 0.5 101.97-3.58 98.24-7.65 98.24-14.9L98.24-14.9 98.24-19.4Q98.24-26.6 101.97-30.7 105.69-34.8 112.34-34.8L112.34-34.8ZM132.89-34.3L155.39-34.3 154.74-29.85 137.79-29.85 137.79-19.75 153.14-19.75 153.14-15.3 137.79-15.3 137.79-4.45 155.04-4.45 155.74 0 132.89 0 132.89-34.3ZM173.64-34.8Q179.29-34.8 182.51-32.3 185.74-29.8 185.74-25.2L185.74-25.2 185.74-24.6 180.84-24.6 180.84-25.35Q180.84-27.75 178.89-29.05 176.94-30.35 173.74-30.35L173.74-30.35Q170.19-30.35 168.21-29.18 166.24-28 166.24-25.8L166.24-25.8Q166.24-24.15 167.36-23.1 168.49-22.05 170.16-21.45 171.84-20.85 174.79-20.1L174.79-20.1Q178.59-19.1 180.94-18.15 183.29-17.2 184.96-15.3 186.64-13.4 186.64-10.25L186.64-10.25Q186.64-4.65 183.21-2.08 179.79 0.5 173.59 0.5L173.59 0.5Q167.39 0.5 163.96-2.13 160.54-4.75 160.54-9.75L160.54-9.75 160.59-10.75 165.49-10.75 165.44-9.7Q165.44-6.8 167.61-5.38 169.79-3.95 173.64-3.95L173.64-3.95Q177.39-3.95 179.56-5.33 181.74-6.7 181.74-9.1L181.74-9.1Q181.74-11 180.56-12.18 179.39-13.35 177.61-14 175.84-14.65 172.79-15.45L172.79-15.45Q169.04-16.45 166.79-17.35 164.54-18.25 162.94-20.13 161.34-22 161.34-25.05L161.34-25.05Q161.34-30 164.69-32.4 168.04-34.8 173.64-34.8L173.64-34.8Z" opacity="1" transform="matrix(1,0,0,1,0,0)" fill="#000000" class="undefined-text-0" data-fill-palette-color="primary" id="text-0"></path></svg></g></svg></g></svg></g></svg></g><g><svg viewBox="0 0 71.01776669579037 104.83719093724532" height="104.83719093724532" width="71.01776669579037"><g><svg xmlns="http://www.w3.org/2000/svg" xmlns:xlink="http://www.w3.org/1999/xlink" version="1.1" x="0" y="0" viewBox="16.128999710083008 0 67.74100494384766 100" enable-background="new 0 0 100 100" xml:space="preserve" height="104.83719093724532" width="71.01776669579037" class="icon-icon-0" data-fill-palette-color="accent" id="icon-0"><path d="M50 0C31.294 0 16.129 15.165 16.129 33.87c0 0.401 0.012 0.809 0.03 1.221 0.127 3.558 0.798 6.975 1.939 10.172C25.324 69.015 50 100 50 100s24.673-30.982 31.9-54.734c1.143-3.197 1.813-6.617 1.939-10.175 0.02-0.412 0.031-0.819 0.031-1.221C83.871 15.165 68.706 0 50 0zM50 50.459c-9.161 0-16.589-7.428-16.589-16.589 0-9.16 7.428-16.588 16.589-16.588 9.162 0 16.589 7.428 16.589 16.588C66.589 43.031 59.162 50.459 50 50.459z" fill="#000000" data-fill-palette-color="accent"></path></svg></g></svg></g></svg></g></svg><rect width="395.52" height="85.59299297634539" fill="none" stroke="none" visibility="hidden"></rect></g></svg></g></svg>